<svg xmlns="http://www.w3.org/2000/svg" viewBox="0 0 192.64 25.99"><defs><style>.cls-1{fill:#683817;}</style></defs><title>Asset 1</title><g id="Layer_2" data-name="Layer 2"><g id="Layer_1-2" data-name="Layer 1"><path class="cls-1" d="M187.92,8a2.44,2.44,0,0,1,2.24,2.72c0,.4-.16.54-.62.54-1.48.05-2.88.08-4.31.08.35-2.18,1.51-3.34,2.69-3.34m4.18,8.19A4.47,4.47,0,0,1,189,17.51c-1.89,0-3.91-1.51-4-5,3.12-.11,6.49-.38,6.92-.43s.65-.35.65-.89A4.19,4.19,0,0,0,188.54,7a5.56,5.56,0,0,0-4,2,6.88,6.88,0,0,0-1.81,4.74c0,3,1.94,5.74,5.31,5.74a6.09,6.09,0,0,0,4.47-2.67ZM181,16.08a4.24,4.24,0,0,1-3.18,1.43c-1.45,0-4-1.24-4-5,0-2.83,1.48-4.23,3.12-4.23a4,4,0,0,1,2.72,1.16c.22.22.35.3.51.3a1.37,1.37,0,0,0,.95-1.24,1,1,0,0,0-.46-.84,3.87,3.87,0,0,0-2.37-.7,7.15,7.15,0,0,0-4.15,1.57,6.41,6.41,0,0,0-2.72,5.22,5.43,5.43,0,0,0,5.49,5.66c1.59,0,3.37-1.19,4.58-2.78Zm-11.07,3V18.4c-1.54-.19-1.7-.27-1.7-2.08v-5.2c0-2.61-1.32-4.12-3.47-4.12a3.93,3.93,0,0,0-2.21.81c-.68.43-1.24.84-1.78,1.24V6.92a20.78,20.78,0,0,1-4,1.11v.64c1.43.27,1.59.35,1.59,2.05V16.3c0,1.77-.13,1.91-1.91,2.1v.72h5.95V18.4c-1.51-.16-1.67-.27-1.67-2.08V10a4.56,4.56,0,0,1,2.77-1.3c1.65,0,2.35,1.11,2.35,3v4.5c0,1.89-.19,2.08-1.7,2.24v.72ZM150.3,8a2.44,2.44,0,0,1,2.23,2.72c0,.4-.16.54-.62.54-1.48.05-2.88.08-4.31.08C148,9.16,149.11,8,150.3,8m4.17,8.19a4.47,4.47,0,0,1-3.07,1.32c-1.88,0-3.9-1.51-4-5,3.13-.11,6.49-.38,6.92-.43s.65-.35.65-.89A4.19,4.19,0,0,0,150.92,7a5.58,5.58,0,0,0-4,2,6.92,6.92,0,0,0-1.8,4.74c0,3,1.93,5.74,5.3,5.74a6.08,6.08,0,0,0,4.47-2.67Zm-10.72,2.93V18.4c-1.72-.16-1.88-.33-1.88-2.16V7a21.9,21.9,0,0,1-4,1v.67c1.54.25,1.65.35,1.65,2.05v5.52c0,1.83-.19,2-1.86,2.16v.72ZM140.52,4.77A1.47,1.47,0,0,0,142,3.31a1.45,1.45,0,0,0-1.42-1.51,1.49,1.49,0,0,0,0,3M136,16.08a4.24,4.24,0,0,1-3.18,1.43c-1.46,0-4-1.24-4-5,0-2.83,1.48-4.23,3.12-4.23a4,4,0,0,1,2.72,1.16c.22.22.35.3.51.3a1.37,1.37,0,0,0,1-1.24,1,1,0,0,0-.46-.84,3.9,3.9,0,0,0-2.37-.7,7.15,7.15,0,0,0-4.15,1.57,6.41,6.41,0,0,0-2.72,5.22,5.43,5.43,0,0,0,5.49,5.66c1.59,0,3.37-1.19,4.58-2.78ZM123.28,5.6c-.21-1.69-.38-2.77-.48-3.74a11,11,0,0,0-3.45-.65c-3.53,0-5.66,2.24-5.66,4.88,0,3,2.59,4.33,4.5,5.33s3.45,2.05,3.45,4a2.93,2.93,0,0,1-3.15,3.15c-2.75,0-4-2.77-4.45-4.44l-.83.21a33.8,33.8,0,0,0,.72,4.26,9.57,9.57,0,0,0,1.41.56,8.43,8.43,0,0,0,2.63.41c3.67,0,6.09-2.29,6.09-5.17S121.64,10.1,119.4,9,116,7,116,5.06a2.79,2.79,0,0,1,2.94-2.91c2.29,0,3.07,1.92,3.55,3.61ZM99.34,7.33l-.76.8.11.3h1.86v7.89c0,1.75-.16,1.92-1.86,2.08v.72h6.52v-.7c-2.1-.21-2.29-.32-2.29-2.23V8.43h2.88a1.05,1.05,0,0,0,.3-1.1h-3.18v-1c-.06-2.29.19-3.53.51-4a1.45,1.45,0,0,1,1.32-.79A3.41,3.41,0,0,1,107,2.53a.5.5,0,0,0,.75.06,1.86,1.86,0,0,0,.57-.7.93.93,0,0,0-.16-1A2.88,2.88,0,0,0,106,0a5.64,5.64,0,0,0-3,1.43,6.9,6.9,0,0,0-2.13,3.18,7.49,7.49,0,0,0-.29,2.12v.6ZM91,7.92c2.24,0,3.45,2.48,3.45,5.74,0,3.74-1.32,4.87-2.85,4.87-2.16,0-3.53-2.53-3.53-5.92,0-3.07,1.37-4.69,2.93-4.69M91.34,7a6.18,6.18,0,0,0-6,6.49,5.85,5.85,0,0,0,6,6c2.75,0,5.9-2.08,5.9-6.44a5.87,5.87,0,0,0-5.87-6m-12.53.33H73.94V8c1.5.24,1.69.54,1.37,1.53-.54,1.67-1.64,4.74-2.37,6.55l-2.4-6.63c-.35-1-.19-1.24,1-1.45v-.7H65.91V8c1.43.21,1.7.56,2.26,2,.76,1.81,2,5.17,3.15,8.38a1.78,1.78,0,0,1,.06,1.24,14.28,14.28,0,0,1-.78,1.7,5.33,5.33,0,0,1-2,2.31c-.46.33-.7.57-.7,1A1.62,1.62,0,0,0,69.44,26a.81.81,0,0,0,.89-.67A65.7,65.7,0,0,1,73.1,18c1.83-4.33,2.67-6.57,3.34-8s1-1.72,2.37-2ZM65.69,18.15l-.24-.72a3.71,3.71,0,0,1-1.59.4c-.67,0-1.59-.38-1.59-2.53V8.43H65.1a.78.78,0,0,0,.16-1.1h-3V3.61l-.35-.08-2,1.83v2H58.72l-.73.8.11.3h1.83v7.79c0,2.18,1,3.23,2.77,3.23a2.67,2.67,0,0,0,1.11-.35Zm-8.24,1V18.4c-1.72-.16-1.94-.33-1.94-2.1V0a24,24,0,0,1-4.17.94v.65c1.67.16,1.83.24,1.83,2V16.3c0,1.77-.22,1.91-1.91,2.1v.72Zm-7.08-1.34-.7-.06c-1-.08-1.24-.27-1.24-1.64V7.14A32,32,0,0,1,44,7.62V8.3c1.88.24,2,.35,2,1.85v6.33a3.84,3.84,0,0,1-2.72,1.22c-1.16,0-2.29-.65-2.29-2.94V11.1c0-1.78,0-3.07.11-4a37.12,37.12,0,0,1-4.1.48V8.3c1.54.27,1.65.37,1.65,1.85v5.31c0,2.83,1.48,4,3.36,4a4,4,0,0,0,2.13-.7,16.44,16.44,0,0,0,1.86-1.32v1.86l.19.16a31.62,31.62,0,0,1,4.12-1Zm-15.09-1.7a4.21,4.21,0,0,1-3.17,1.43c-1.46,0-4-1.24-4-5,0-2.83,1.48-4.23,3.13-4.23a4,4,0,0,1,2.72,1.16c.21.22.35.3.51.3a1.38,1.38,0,0,0,.94-1.24,1,1,0,0,0-.46-.84A3.85,3.85,0,0,0,32.56,7a7.13,7.13,0,0,0-4.14,1.57,6.41,6.41,0,0,0-2.72,5.22,5.43,5.43,0,0,0,5.49,5.66c1.59,0,3.37-1.19,4.58-2.78Zm-15.16.81a3.24,3.24,0,0,1-2,.86A1.92,1.92,0,0,1,16.3,15.7c0-1,.56-1.48,1.56-2,.59-.27,1.7-.78,2.26-1.08Zm4.47,1.16-.27-.73a2.42,2.42,0,0,1-1,.27c-.45,0-.91-.38-.91-1.59V11.1a3.92,3.92,0,0,0-1.27-3.37A3.64,3.64,0,0,0,18.91,7a12.18,12.18,0,0,0-4.12,1.89c-.54.4-.89.7-.89,1.13a1.37,1.37,0,0,0,1.26,1.19.82.82,0,0,0,.87-.68,4.35,4.35,0,0,1,.78-1.8A1.44,1.44,0,0,1,18,8.22c1.29,0,2.15,1.07,2.15,3v.54a21,21,0,0,1-4.2,1.77c-1.46.49-2.16,1.3-2.16,2.64a3.34,3.34,0,0,0,3.32,3.32c.75,0,2-1,3.12-1.7a2.42,2.42,0,0,0,.65,1.16,2,2,0,0,0,1.32.54ZM12.34,5.6c-.11-1.32-.25-3.1-.27-4H.05v.8c2.08.17,2.29.3,2.29,2.64V15.65C2.34,18,2.1,18.18,0,18.34v.78H7.52v-.78c-2.43-.19-2.67-.32-2.67-2.69V10.88H7.54c2.43,0,2.59.3,2.91,2.13h.81V7.81h-.81c-.32,1.73-.48,2-2.91,2H4.85V3.47c0-.8.11-.88.91-.88H7.7c1.94,0,2.56.21,3,.94a5.93,5.93,0,0,1,.81,2.18Z"/></g></g></svg>